<svg width="88" height="92" viewBox="0 0 88 92" fill="none" xmlns="http://www.w3.org/2000/svg">
<path d="M12.2002 58.4707V79.2217H75.6738V58.4707H87.874V85.3223C87.8739 88.6918 85.1433 91.4189 81.7646 91.4189H6.10938C2.72772 91.4189 0.000151985 88.6887 0 85.3223V58.4707H12.2002ZM51.1387 0.578125C52.7626 0.578269 52.7266 1.83887 52.7266 1.83887V32.166H61.8105C65.3009 32.166 62.6845 34.7832 62.6748 34.793C62.664 34.8073 47.8134 54.5197 45.7412 56.5889C44.2503 58.0888 42.8203 56.4131 42.8203 56.4131L25.3545 35.3076C25.3545 35.3076 22.6966 32.7989 25.5781 32.7988H35.4209V2.0752C35.4209 2.0752 35.0297 0.578125 37.2842 0.578125H51.1387Z" fill="white"/>
</svg>
