<svg width="72" height="51" viewBox="0 0 72 51" fill="none" xmlns="http://www.w3.org/2000/svg">
<path fill-rule="evenodd" clip-rule="evenodd" d="M28.7584 34.9208V14.4778C35.9303 17.8927 41.4849 21.1916 48.0544 24.7482C42.636 27.789 35.9303 31.2008 28.7584 34.9208ZM68.7276 4.31053C67.4905 2.66119 65.3819 1.37732 63.1371 0.952275C56.5389 -0.315621 15.3755 -0.319227 8.78095 0.952275C6.98079 1.29376 5.37781 2.11917 4.0008 3.4016C-1.8013 8.85094 0.0167982 38.074 1.41533 42.8078C2.00343 44.8567 2.76368 46.3344 3.72114 47.3044C4.95471 48.5868 6.64368 49.4698 8.58369 49.8658C14.0164 51.0029 42.0049 51.6387 63.0223 50.0365C64.9587 49.6951 66.6728 48.7836 68.0247 47.4467C73.3893 42.0191 73.0236 11.1549 68.7276 4.31053Z" fill="white"/>
</svg>
