<svg width="30" height="30" viewBox="0 0 30 30" fill="none" xmlns="http://www.w3.org/2000/svg">
<path d="M25 23.3333C25 24.2538 24.2538 25 23.3333 25H6.66667C5.74619 25 5 24.2538 5 23.3333C5 22.4129 5.74619 21.6667 6.66667 21.6667H23.3333C24.2538 21.6667 25 22.4129 25 23.3333ZM25 15C25 15.9205 24.2538 16.6667 23.3333 16.6667H6.66667C5.74619 16.6667 5 15.9205 5 15C5 14.0795 5.74619 13.3333 6.66667 13.3333H23.3333C24.2538 13.3333 25 14.0795 25 15ZM25 6.66667C25 7.58714 24.2538 8.33333 23.3333 8.33333H6.66667C5.74619 8.33333 5 7.58714 5 6.66667C5 5.74619 5.74619 5 6.66667 5H23.3333C24.2538 5 25 5.74619 25 6.66667Z" fill="white"/>
</svg>
